<?xml version="1.0" encoding="utf-8"?>
<!-- Generator: Adobe Illustrator 26.3.1, SVG Export Plug-In . SVG Version: 6.00 Build 0)  -->
<svg version="1.1" id="Ebene_1" xmlns="http://www.w3.org/2000/svg" xmlns:xlink="http://www.w3.org/1999/xlink" x="0px" y="0px"
	 viewBox="0 0 53.7 58.1" style="enable-background:new 0 0 53.7 58.1;" xml:space="preserve">
<style type="text/css">
	.st0{fill:none;stroke:#000000;stroke-width:2;stroke-linecap:round;stroke-linejoin:round;stroke-miterlimit:10;}
</style>
<g>
	<g>
		<path d="M44.8,58.1c-1.79,0-3.82-0.68-6.39-2.13l-32.1-17.9C1.83,35.51,0,32.85,0,28.9c0-3.77,1.71-6.21,6.11-8.67l32.4-18.2
			C40.8,0.72,43.18,0,45.2,0c4.79,0,8.4,3.91,8.4,9.1c0,3.68-1.88,6.39-6.11,8.77L27.88,28.68c-0.3,0.17-0.41,0.33-0.43,0.39
			c0.01,0,0.09,0.12,0.35,0.27l19.58,10.89c4.6,2.57,6.31,4.79,6.31,8.17C53.7,53.66,49.63,58.1,44.8,58.1z M45.2,2
			c-1.68,0-3.71,0.63-5.7,1.77L7.09,21.97C3.33,24.08,2,25.89,2,28.9c0,3.21,1.44,5.23,5.3,7.43l32.09,17.9c0,0,0,0,0,0
			c2.26,1.28,3.98,1.87,5.41,1.87c3.68,0,6.9-3.6,6.9-7.7c0-2.25-0.84-3.95-5.29-6.43l-19.6-10.9c-1.19-0.69-1.37-1.56-1.37-2.02
			c0-0.48,0.19-1.38,1.45-2.12l19.62-10.81c3.56-2.01,5.08-4.11,5.08-7.02C51.6,5.05,48.85,2,45.2,2z"/>
	</g>
</g>
</svg>
