<?xml version="1.0" encoding="utf-8"?>
<!-- Generator: Adobe Illustrator 26.3.1, SVG Export Plug-In . SVG Version: 6.00 Build 0)  -->
<svg version="1.1" id="Ebene_1" xmlns="http://www.w3.org/2000/svg" xmlns:xlink="http://www.w3.org/1999/xlink" x="0px" y="0px"
	 viewBox="0 0 53.7 58.1" style="enable-background:new 0 0 53.7 58.1;" xml:space="preserve">
<style type="text/css">
	.st0{fill:none;stroke:#000000;stroke-width:2;stroke-linecap:round;stroke-linejoin:round;stroke-miterlimit:10;}
</style>
<g>
	<g>
		<path d="M8.9,58.1c-4.82,0-8.9-4.44-8.9-9.7c0-3.39,1.71-5.6,6.31-8.17l19.6-10.9c0.29-0.17,0.34-0.3,0.34-0.3
			c-0.01,0-0.12-0.17-0.46-0.37L6.22,17.88C1.98,15.49,0.1,12.78,0.1,9.1C0.1,3.91,3.71,0,8.5,0c2.02,0,4.4,0.72,6.7,2.03l32.4,18.2
			c4.4,2.47,6.11,4.9,6.11,8.67c0,3.95-1.83,6.61-6.3,9.17L15.29,55.98C12.72,57.43,10.69,58.1,8.9,58.1z M8.5,2
			C4.85,2,2.1,5.05,2.1,9.1c0,2.91,1.52,5.02,5.09,7.03l19.59,10.8c1.28,0.75,1.47,1.65,1.47,2.13c0,0.46-0.17,1.33-1.35,2.01
			L7.29,41.98C2.84,44.46,2,46.15,2,48.4c0,4.1,3.22,7.7,6.9,7.7c1.43,0,3.15-0.59,5.41-1.87l32.11-17.9
			c3.85-2.2,5.29-4.22,5.29-7.43c0-3.01-1.33-4.82-5.09-6.93l-32.4-18.2C12.21,2.63,10.18,2,8.5,2z"/>
	</g>
</g>
</svg>
