<?xml version="1.0" encoding="utf-8"?>
<!-- Generator: Adobe Illustrator 26.3.1, SVG Export Plug-In . SVG Version: 6.00 Build 0)  -->
<svg version="1.1" id="Ebene_1" xmlns="http://www.w3.org/2000/svg" xmlns:xlink="http://www.w3.org/1999/xlink" x="0px" y="0px"
	 viewBox="0 0 71.56 70.6" style="enable-background:new 0 0 71.56 70.6;" xml:space="preserve">
<style type="text/css">
	.st0{fill:none;stroke:#000000;stroke-width:2;stroke-linecap:round;stroke-linejoin:round;stroke-miterlimit:10;}
</style>
<g>
	<g>
		<path d="M61.76,17H9.8C3.48,17,0,13.98,0,8.5S3.48,0,9.8,0h51.96c6.32,0,9.8,3.02,9.8,8.5S68.08,17,61.76,17z M9.8,2
			C4.62,2,2,4.19,2,8.5S4.62,15,9.8,15h51.96c5.18,0,7.8-2.19,7.8-6.5S66.94,2,61.76,2H9.8z"/>
	</g>
</g>
<g>
	<g>
		<path d="M61.76,43.5H9.8C3.48,43.5,0,40.48,0,35c0-5.48,3.48-8.5,9.8-8.5h51.96c6.32,0,9.8,3.02,9.8,8.5
			C71.56,40.48,68.08,43.5,61.76,43.5z M9.8,28.5C4.62,28.5,2,30.69,2,35s2.62,6.5,7.8,6.5h51.96c5.18,0,7.8-2.19,7.8-6.5
			s-2.62-6.5-7.8-6.5H9.8z"/>
	</g>
</g>
<g>
	<g>
		<path d="M61.76,70.6H9.8c-6.32,0-9.8-3.02-9.8-8.5s3.48-8.5,9.8-8.5h51.96c6.32,0,9.8,3.02,9.8,8.5S68.08,70.6,61.76,70.6z
			 M9.8,55.6c-5.18,0-7.8,2.19-7.8,6.5s2.62,6.5,7.8,6.5h51.96c5.18,0,7.8-2.19,7.8-6.5s-2.62-6.5-7.8-6.5H9.8z"/>
	</g>
</g>
</svg>
